<svg width="39" height="31" viewBox="0 0 39 31" fill="none" xmlns="http://www.w3.org/2000/svg">
<path d="M6.63265 30.188C4.59864 30.188 2.96259 29.5248 1.72449 28.1983C0.574831 26.7833 0 25.0146 0 22.8921C0 18.5588 1.5034 14.3581 4.5102 10.2901C7.51701 6.13362 11.4524 2.86151 16.3163 0.473762C17.1122 0.0315857 17.7755 -0.101068 18.3061 0.0758001C18.8367 0.164234 19.102 0.517977 19.102 1.13703C19.102 1.75607 18.7041 2.28668 17.9082 2.72886C14.3707 4.85131 11.8946 6.92954 10.4796 8.96355C9.15306 10.9976 8.4898 12.8105 8.4898 14.4023C8.4898 15.8173 8.88775 16.9227 9.68367 17.7187C10.4796 18.5146 11.2313 19.3547 11.9388 20.2391C12.7347 21.035 13.1327 22.2731 13.1327 23.9534C13.1327 25.6336 12.5136 27.0928 11.2755 28.3309C10.1259 29.569 8.57823 30.188 6.63265 30.188ZM26.5306 30.188C24.4966 30.188 22.8605 29.5248 21.6224 28.1983C20.4728 26.7833 19.898 25.0146 19.898 22.8921C19.898 18.5588 21.4014 14.3581 24.4082 10.2901C27.415 6.13362 31.3503 2.86151 36.2143 0.473762C37.0102 0.0315857 37.6735 -0.101068 38.2041 0.0758001C38.7347 0.164234 39 0.517977 39 1.13703C39 1.75607 38.602 2.28668 37.8061 2.72886C34.2687 4.85131 31.7925 6.92954 30.3776 8.96355C29.051 10.9976 28.3878 12.8105 28.3878 14.4023C28.3878 15.8173 28.7857 16.9227 29.5816 17.7187C30.3776 18.5146 31.1292 19.3547 31.8367 20.2391C32.6327 21.035 33.0306 22.2731 33.0306 23.9534C33.0306 25.6336 32.4116 27.0928 31.1735 28.3309C30.0238 29.569 28.4762 30.188 26.5306 30.188Z" fill="#202527"/>
</svg>
