<svg width="120" height="31" viewBox="0 0 120 31" fill="none" xmlns="http://www.w3.org/2000/svg">
<g clip-path="url(#clip0_1_256)">
<mask id="mask0_1_256" style="mask-type:luminance" maskUnits="userSpaceOnUse" x="-1" y="0" width="121" height="31">
<path d="M119.999 0H-0.0012207V30.0375H119.999V0Z" fill="white"/>
</mask>
<g mask="url(#mask0_1_256)">
<path fill-rule="evenodd" clip-rule="evenodd" d="M17.3149 0.194946L23.057 7.00236L24.3964 19.5817L14.2612 30.2325L2.46899 19.5467L8.40659 4.43888L17.3149 0.194946ZM8.92153 5.5987L13.6577 10.602L8.81414 17.6273L3.73784 18.7882L8.92153 5.5987ZM3.95127 19.6688L12.953 27.8261L8.82456 18.5544L3.95127 19.6688ZM9.81317 18.5532L14.3758 28.7999L22.9544 19.7849L9.81317 18.5532ZM23.3497 18.281L22.237 7.83183L15.0742 10.7091L23.3497 18.281ZM14.3543 10.0221L21.8734 7.00181L17.0744 1.31261L9.5177 4.91269L14.3543 10.0221ZM14.3153 11.241L22.6244 18.8438L9.89606 17.6508L14.3153 11.241Z" fill="#202527"/>
<path d="M60.3781 23.8018C57.8339 23.8018 55.6862 22.9757 53.9681 21.2906C52.2499 19.6055 51.3909 17.4909 51.3909 14.9797C51.3909 12.4686 52.2499 10.387 53.9681 8.70189C55.6862 7.01679 57.8339 6.15771 60.3781 6.15771C62.5258 6.15771 64.3761 6.7855 65.9951 8.04107C67.6142 9.2636 68.6384 10.8826 69.068 12.8321H66.0612C65.1691 10.4861 63.0214 8.90014 60.3781 8.90014C58.6269 8.90014 57.2061 9.49489 56.0497 10.6513C54.8932 11.8078 54.3315 13.2286 54.3315 14.9797C54.3315 16.7309 54.8932 18.1847 56.0497 19.3412C57.2061 20.4976 58.6269 21.0593 60.3781 21.0593C63.0214 21.0593 65.1691 19.4734 66.0612 17.1274H69.068C68.6384 19.0769 67.6142 20.6959 65.9951 21.9515C64.3761 23.174 62.5258 23.8018 60.3781 23.8018Z" fill="#202527"/>
<path d="M97.13 7.9089C95.9736 6.75246 94.4537 6.15771 92.5703 6.15771C89.7618 6.15771 87.7132 7.31416 86.4907 9.66009C85.5325 7.44633 83.4179 6.15771 80.7415 6.15771C78.2965 6.15771 76.4462 7.08287 75.2236 8.96623V6.55421H72.3821V23.4053H75.2236V13.3938C75.2236 10.7174 77.0739 8.90014 79.8494 8.90014C82.4927 8.90014 84.2109 10.6513 84.2109 13.3277V23.4053H87.0524V13.3938C87.0524 10.7174 88.9027 8.90014 91.6782 8.90014C94.3215 8.90014 96.0396 10.6513 96.0396 13.3277V23.4053H98.8812V12.5347C98.8812 10.5852 98.2865 9.06535 97.13 7.9089Z" fill="#202527"/>
<path fill-rule="evenodd" clip-rule="evenodd" d="M119.884 16.0701V16.0698C119.915 15.6783 119.943 15.315 119.943 14.9797C119.943 12.4686 119.084 10.387 117.366 8.70189C115.68 7.01679 113.533 6.15771 110.989 6.15771C108.444 6.15771 106.297 7.01679 104.579 8.70189C102.893 10.387 102.034 12.4686 102.034 14.9797C102.034 17.4909 102.893 19.6055 104.579 21.2906C106.297 22.9757 108.444 23.8018 110.989 23.8018C115.086 23.8018 118.39 21.4889 119.612 18.0195H116.473C115.581 19.9029 113.5 21.1915 110.989 21.1915C109.469 21.1915 108.147 20.7289 107.057 19.8038C105.966 18.8786 105.306 17.6561 105.074 16.1692H119.877L119.884 16.0701ZM116.903 13.625H105.107C105.669 10.7174 107.982 8.76798 110.989 8.76798C113.995 8.76798 116.374 10.7505 116.903 13.625Z" fill="#202527"/>
<path fill-rule="evenodd" clip-rule="evenodd" d="M48.9366 6.5542H36.1166V9.29664H46.095V12.6008H41.0728C39.3216 12.6008 37.8678 13.1294 36.7113 14.2198C35.5549 15.2772 34.9932 16.5988 34.9932 18.1848C34.9932 19.8038 35.5549 21.1255 36.7113 22.2158C37.8678 23.2732 39.3216 23.8018 41.0728 23.8018C43.3526 23.8018 45.3351 22.8106 46.3924 21.2246V23.4053H48.9366V6.5542ZM46.095 17.8874C46.095 19.8699 44.2117 21.2246 41.4362 21.2246C39.4207 21.2246 37.9338 19.936 37.9338 18.1848C37.9338 16.4666 39.4207 15.178 41.4362 15.178H46.095V17.8874Z" fill="#202527"/>
</g>
</g>
<defs>
<clipPath id="clip0_1_256">
<rect width="120" height="30.0375" fill="white"/>
</clipPath>
</defs>
</svg>
