<svg width="134" height="30" viewBox="0 0 134 30" fill="none" xmlns="http://www.w3.org/2000/svg">
<g clip-path="url(#clip0_1_295)">
<mask id="mask0_1_295" style="mask-type:luminance" maskUnits="userSpaceOnUse" x="0" y="0" width="134" height="30">
<path d="M134 0H0V29.9441H134V0Z" fill="white"/>
</mask>
<g mask="url(#mask0_1_295)">
<path d="M12.0741 29.8692H9.7854V-0.0749512L12.0741 1.83233V29.8692Z" fill="#202527"/>
<path d="M4.82593 29.8693H7.11465V5.729L4.82593 7.63627V29.8693Z" fill="#202527"/>
<path d="M2.34683 29.8694H0.0581055V13.3582L2.34683 11.4509V29.8694Z" fill="#202527"/>
<path d="M21.8012 29.8694H19.5125V11.4509L21.8012 13.3582V29.8694Z" fill="#202527"/>
<path d="M14.7449 29.8693H17.0335V7.63627L14.7449 5.729V29.8693Z" fill="#202527"/>
<path fill-rule="evenodd" clip-rule="evenodd" d="M46.7031 21.4303V20.4008H44.1583V21.3846C44.1583 23.5807 44.8691 25.5425 47.931 25.5425C50.9931 25.5425 51.8082 23.3292 51.8082 20.967C51.8082 18.1646 51.0558 17.0951 48.5998 15.2477C47.1577 14.1782 46.9382 13.5319 46.9382 12.4281C46.9382 11.3243 47.1316 10.5979 47.9832 10.5979C48.835 10.5979 49.0283 11.3185 49.0283 12.4624V13.2803H51.5364V12.3881C51.5364 10.5807 51.0036 8.38452 48.0407 8.38452C45.0781 8.38452 44.4248 10.5979 44.4248 12.7884C44.4248 15.2534 45.3706 16.1685 47.1316 17.5754C48.8925 18.9825 49.274 19.5372 49.274 21.3274C49.274 22.4083 48.9918 23.3578 48.0303 23.3578C47.0689 23.3578 46.7031 22.6656 46.7031 21.4303ZM31.9106 25.3022L32.4801 20.8525H35.0144L35.6623 25.3022H38.3064L35.563 8.65321H31.9889L29.345 25.3022H31.9106ZM33.7864 11.0954C33.9745 12.977 34.3299 15.6595 34.706 18.4905H32.8146C32.8652 18.1063 32.92 17.6954 32.9766 17.27L32.9767 17.2695C33.2832 14.9713 33.6455 12.2536 33.7029 11.0954H33.7864ZM65.9216 25.3022H63.9465C63.8746 24.8906 63.8292 24.474 63.8105 24.0553C63.356 25.1649 62.3997 25.5482 61.3442 25.5482C58.9301 25.5482 58.1515 23.7752 58.1515 20.9727V13.1315C58.1515 10.4148 59.1966 8.41303 62.0444 8.41303C65.4878 8.41303 65.8536 10.981 65.8536 12.7712V13.3088H63.309V12.6453C63.309 11.7646 63.1835 10.7522 62.0287 10.7522C61.1039 10.7522 60.7119 11.3985 60.7119 12.7311V21.2472C60.7119 22.5798 61.0934 23.2719 62.0079 23.2719C63.1052 23.2719 63.3717 22.3454 63.3717 20.6296V18.1989H61.9504V15.9911H65.9216V25.3022ZM74.7527 25.3022L75.3275 20.8525H77.8408L78.4887 25.3022H81.1223L78.3789 8.65318H74.805L72.1923 25.3022H74.7527ZM76.6338 11.0953C76.8218 12.977 77.1771 15.6593 77.5534 18.4904H75.641C75.6916 18.1062 75.7464 17.6951 75.8032 17.2695V17.2691L75.8033 17.2688C76.1096 14.9707 76.472 12.2534 76.5293 11.0953H76.6338ZM89.7749 17.8612V25.2964H87.246V8.65318H90.7469C93.2446 8.65318 94.7181 9.67122 94.7181 12.6567V13.2916C94.7181 15.8481 93.6731 16.5001 93.0511 16.7632C94.0074 17.2207 94.5509 17.9071 94.5509 20.1948C94.5091 21.9009 94.5597 23.6083 94.7024 25.3079H92.257C92.0719 24.4437 92.0818 22.2832 92.088 20.9325C92.0889 20.7188 92.0898 20.5255 92.0898 20.3607C92.0898 18.3303 91.8285 17.8671 90.3602 17.8671L89.7749 17.8612ZM89.7749 15.7394H90.355C91.6926 15.7394 92.1838 15.2247 92.1838 13.4174V12.8454C92.1838 11.5586 91.9225 10.7751 90.4907 10.7751H89.7749V15.7394ZM105.017 8.65318H101.511V25.3022H105.017C108.915 25.3022 109.344 22.5054 109.344 19.9603V13.5775C109.344 10.4834 108.497 8.65318 105.017 8.65318ZM104.876 23.1173H104.066V10.8608H104.861C106.533 10.8608 106.794 11.8446 106.794 13.3716V20.3092C106.794 22.0307 106.543 23.1173 104.876 23.1173ZM118.697 8.65318V25.3022H116.168V8.65318H118.697ZM127.465 25.3022L128.039 20.8525H130.563L131.206 25.3022H133.85L131.107 8.65318H127.533L124.889 25.3022H127.465ZM130.128 17.4851C130.172 17.8174 130.216 18.1529 130.26 18.4904H128.358C128.39 18.2552 128.423 18.0098 128.457 17.7572C128.778 15.3694 129.185 12.3367 129.247 11.0953H129.341C129.506 12.7526 129.806 15.0311 130.128 17.4851Z" fill="#202527"/>
</g>
</g>
<defs>
<clipPath id="clip0_1_295">
<rect width="134" height="29.9441" fill="white"/>
</clipPath>
</defs>
</svg>
