<svg width="111" height="30" viewBox="0 0 111 30" fill="none" xmlns="http://www.w3.org/2000/svg">
<g clip-path="url(#clip0_1_269)">
<mask id="mask0_1_269" style="mask-type:luminance" maskUnits="userSpaceOnUse" x="0" y="0" width="111" height="30">
<path d="M111 0H0V30H111V0Z" fill="white"/>
</mask>
<g mask="url(#mask0_1_269)">
<path fill-rule="evenodd" clip-rule="evenodd" d="M9.80113 11.8036C9.36306 10.8934 9.16776 9.88538 9.23418 8.87744C9.3006 7.86948 9.62647 6.89583 10.1802 6.05099C10.7339 5.20614 11.4966 4.51881 12.3943 4.0557C13.2921 3.59259 14.2943 3.36944 15.3036 3.40791C16.3131 3.44639 17.2953 3.74519 18.1552 4.27529C19.015 4.80539 19.7232 5.54879 20.211 6.43332C20.6988 7.31787 20.9497 8.3135 20.9392 9.32358C20.9287 10.3337 20.6572 11.3239 20.1511 12.1981L15.4231 20.4L16.8406 22.8555L22.2826 13.4296C23.3568 11.5217 23.6349 9.26709 23.0568 7.15532C22.4787 5.04354 21.091 3.24503 19.1949 2.15022C17.2987 1.05543 15.0474 0.752712 12.9294 1.3078C10.8115 1.8629 8.99799 3.23099 7.88263 5.11506C7.29028 6.12728 6.92143 7.25456 6.80086 8.42114C6.68029 9.58772 6.81081 10.7666 7.18363 11.8786C7.56279 11.8311 7.94451 11.8071 8.32663 11.8066L9.80113 11.8036ZM28.8736 16.5735C28.2859 15.542 27.4818 14.6499 26.5165 13.9587C25.5511 13.2676 24.4476 12.7939 23.2816 12.57C23.1336 12.9238 22.9638 13.2679 22.7731 13.6005L22.0321 14.883C23.0434 14.9452 24.0213 15.2685 24.8703 15.8214C25.7193 16.3743 26.4105 17.1381 26.8762 18.0378C27.342 18.9377 27.5664 19.943 27.5275 20.9555C27.4887 21.9678 27.1881 22.953 26.6549 23.8145C26.1216 24.6761 25.374 25.3845 24.4852 25.871C23.5963 26.3573 22.5966 26.6048 21.5835 26.5893C20.5704 26.5739 19.5786 26.2959 18.705 25.7828C17.8314 25.2695 17.1059 24.5384 16.5991 23.661L11.8786 15.486H9.04512L14.4721 24.888C14.6587 25.2089 14.8656 25.5176 15.0916 25.812L15.1366 25.8705C15.9096 26.8655 16.9009 27.6692 18.0343 28.2195C19.1676 28.77 20.4123 29.0522 21.6721 29.0445C23.1315 29.0444 24.565 28.6601 25.8288 27.9303C27.0925 27.2006 28.1421 26.151 28.8717 24.8873C29.6014 23.6234 29.9856 22.1898 29.9856 20.7305C29.9858 19.2711 29.6016 17.8374 28.8721 16.5735H28.8736ZM11.0336 25.9278C11.9201 25.4658 12.6737 24.7847 13.2226 23.949L13.9411 25.2C14.1399 25.5429 14.3614 25.8722 14.6041 26.1855C13.8275 27.0887 12.8639 27.8121 11.7799 28.3058C10.696 28.7994 9.51762 29.0516 8.32656 29.0445C7.22539 29.0594 6.13226 28.8552 5.1106 28.4441C4.08897 28.0329 3.15919 27.4229 2.37526 26.6493C1.59133 25.8759 0.968875 24.9545 0.544021 23.9384C0.119169 22.9224 -0.0996094 21.8321 -0.0996094 20.7308C-0.0996094 19.6295 0.119169 18.5393 0.544021 17.5232C0.968875 16.5072 1.59133 15.5856 2.37526 14.8122C3.15919 14.0388 4.08897 13.4287 5.1106 13.0176C6.13226 12.6064 7.22539 12.4023 8.32656 12.4171H19.2L17.787 14.8711H8.32656C7.29814 14.8716 6.28795 15.1427 5.39748 15.6572C4.50699 16.1717 3.76759 16.9113 3.25351 17.8022C2.73945 18.6929 2.46883 19.7031 2.46883 20.7315C2.46885 21.7601 2.73948 22.7703 3.25356 23.661C3.75327 24.527 4.46626 25.2504 5.32468 25.7628C6.1831 26.2752 7.15837 26.5593 8.15766 26.5883C9.15694 26.6171 10.147 26.3897 11.0336 25.9278Z" fill="#202527"/>
<path d="M50.4248 24.303L49.9928 22.251L49.7768 22.17C49.6148 22.278 49.3988 22.359 49.1558 22.359C48.7238 22.359 48.3458 22.116 47.8868 21.603L43.9988 17.04L49.3448 11.289L49.2638 11.1H46.1048L40.5158 17.256V6.34803L40.2998 6.18604L37.5728 6.59103V24.6H40.5158V20.118L41.8388 18.687L45.6458 23.277C46.4558 24.276 47.4818 24.924 48.7778 24.924C49.4528 24.924 49.9658 24.762 50.3168 24.519L50.4248 24.303Z" fill="#202527"/>
<path fill-rule="evenodd" clip-rule="evenodd" d="M88.8672 10.776C92.9712 10.776 95.7522 13.908 95.7522 17.85C95.7522 21.792 92.9712 24.924 88.8672 24.924C86.9502 24.924 85.3302 24.141 84.1692 22.953V24.6H81.5232V6.61801L84.2772 6.21301L84.4662 6.34801V12.477C85.6002 11.424 87.1122 10.776 88.8672 10.776ZM88.5162 22.359C91.0542 22.359 92.7282 20.361 92.7282 17.85C92.7282 15.366 91.0542 13.341 88.5162 13.341C86.1402 13.341 84.2502 14.907 84.2502 17.85C84.2502 20.793 86.1402 22.359 88.5162 22.359Z" fill="#202527"/>
<path fill-rule="evenodd" clip-rule="evenodd" d="M110.464 22.278L110.896 24.276L110.788 24.465C110.41 24.735 109.843 24.924 109.168 24.924C107.953 24.924 107.062 24.276 106.711 23.169C105.55 24.276 103.876 24.924 102.094 24.924C99.313 24.924 96.748 23.385 96.748 20.469C96.748 17.472 99.448 16.095 102.769 16.095C104.227 16.095 105.361 16.365 106.333 16.716V15.96C106.333 14.016 104.578 13.071 102.715 13.071C101.176 13.071 99.988 13.719 99.043 14.637H98.827L97.342 13.233V13.017C98.8 11.613 100.663 10.776 102.985 10.776C105.901 10.776 109.222 12.072 109.222 15.96V21.171C109.222 21.9 109.357 22.359 109.843 22.359C110.032 22.359 110.167 22.278 110.275 22.197L110.464 22.278ZM106.333 19.713V18.714C105.631 18.444 104.47 18.093 103.147 18.093C101.014 18.093 99.691 19.011 99.691 20.469C99.691 22.008 101.149 22.764 102.688 22.764C104.551 22.764 106.333 21.603 106.333 19.713Z" fill="#202527"/>
<path d="M78.8662 16.4731C78.8662 13.0981 76.6792 10.7761 73.2502 10.7761C71.4412 10.7761 69.9022 11.4241 68.8492 12.4771C68.4982 11.3971 67.6612 10.7761 66.4192 10.7761C65.7172 10.7761 65.1232 10.9651 64.7452 11.2351L64.6372 11.4241L65.0692 13.4221L65.2582 13.5031C65.3662 13.4221 65.5012 13.3411 65.6902 13.3411C66.2032 13.3411 66.3112 13.8001 66.3112 14.5291V24.6001H69.2812V16.7161C69.2812 14.6641 70.6582 13.3141 72.6832 13.3141C74.7082 13.3141 75.9232 14.6641 75.9232 16.7161V24.6001H78.8662V16.4731Z" fill="#202527"/>
<path fill-rule="evenodd" clip-rule="evenodd" d="M63.9033 22.278L64.3353 24.276L64.2273 24.465C63.8493 24.735 63.2823 24.924 62.6073 24.924C61.3923 24.924 60.5013 24.276 60.1503 23.169C58.9893 24.276 57.3153 24.924 55.5333 24.924C52.7523 24.924 50.1873 23.385 50.1873 20.469C50.1873 17.472 52.8873 16.095 56.2083 16.095C57.6663 16.095 58.8003 16.365 59.7723 16.716V15.96C59.7723 14.016 58.0173 13.071 56.1543 13.071C54.6153 13.071 53.4273 13.719 52.4823 14.637H52.2663L50.7813 13.233V13.017C52.2393 11.613 54.1023 10.776 56.4243 10.776C59.3403 10.776 62.6613 12.072 62.6613 15.96V21.171C62.6613 21.9 62.7963 22.359 63.2823 22.359C63.4713 22.359 63.6063 22.278 63.7143 22.197L63.9033 22.278ZM59.7723 19.713V18.714C59.0703 18.444 57.9093 18.093 56.5863 18.093C54.4533 18.093 53.1303 19.011 53.1303 20.469C53.1303 22.008 54.5883 22.764 56.1273 22.764C57.9903 22.764 59.7723 21.603 59.7723 19.713Z" fill="#202527"/>
</g>
</g>
<defs>
<clipPath id="clip0_1_269">
<rect width="111" height="30" fill="white"/>
</clipPath>
</defs>
</svg>
