<svg width="107" height="30" viewBox="0 0 107 30" fill="none" xmlns="http://www.w3.org/2000/svg">
<g clip-path="url(#clip0_1_314)">
<mask id="mask0_1_314" style="mask-type:luminance" maskUnits="userSpaceOnUse" x="0" y="0" width="108" height="30">
<path d="M107.001 0H0.000976562V29.8883H107.001V0Z" fill="white"/>
</mask>
<g mask="url(#mask0_1_314)">
<path d="M15.8175 25.3676C17.7474 25.2043 19.5939 24.5086 21.1517 23.3579L24.0479 26.7951C21.8349 28.4947 19.1903 29.5408 16.4135 29.815C13.6367 30.0892 10.8386 29.5804 8.33596 28.3464C5.83335 27.1123 3.72623 25.2023 2.25317 22.8325C0.780095 20.4626 -7.81717e-05 17.7279 0.000977633 14.9375C0.00203344 12.1472 0.784275 9.4129 2.25913 7.04423C3.734 4.67555 5.84257 2.7671 8.3461 1.53495C10.8496 0.302807 13.6481 -0.203809 16.4247 0.0724605C19.2013 0.348731 21.8451 1.39685 24.0568 3.09816L21.1592 6.53531C19.6024 5.3832 17.7565 4.68586 15.8268 4.52096C13.8972 4.35603 11.9597 4.73002 10.2301 5.60125C8.50046 6.47248 7.04665 7.80675 6.03057 9.45545C5.01447 11.1041 4.47602 13.0025 4.47515 14.9392C4.4743 16.8759 5.01107 18.7747 6.0257 20.4244C7.04031 22.0739 8.49294 23.4095 10.2218 24.2822C11.9506 25.1551 13.8878 25.5308 15.8175 25.3676Z" fill="#202527"/>
<path d="M25.0763 25.9266L22.1802 22.4895H22.1847C23.2049 21.5151 24.0171 20.3439 24.572 19.0468C25.1267 17.7496 25.4129 16.3536 25.4129 14.9427C25.4129 13.5319 25.1267 12.1357 24.572 10.8386C24.0171 9.54144 23.2049 8.37028 22.1847 7.39589L25.0838 3.95874C26.6002 5.35866 27.8102 7.0575 28.6377 8.94821C29.465 10.8389 29.8918 12.8805 29.891 14.9443C29.8905 17.0081 29.4623 19.0495 28.6336 20.9396C27.805 22.8297 26.5938 24.5277 25.0763 25.9266Z" fill="#202527"/>
<path d="M84.6553 0.896606V24.8969H87.5156V0.896606H84.6553Z" fill="#202527"/>
<path fill-rule="evenodd" clip-rule="evenodd" d="M98.849 22.6284C95.7914 22.6284 93.4571 20.9517 92.8982 17.9928H106.674C106.739 17.5654 106.772 17.138 106.772 16.7106C106.772 12.1078 103.55 8.03101 98.586 8.03101C93.4571 8.03101 89.9722 11.8119 89.9722 16.6777C89.9722 21.6092 93.49 25.3244 98.7832 25.3244C102.071 25.3244 104.57 23.8449 106.016 21.6092L103.583 20.2284C102.761 21.5764 101.118 22.6284 98.849 22.6284ZM92.8982 15.4941C93.3585 12.6338 95.4955 10.7269 98.586 10.7269C101.052 10.7269 103.386 12.2393 103.879 15.4941H92.8982Z" fill="#202527"/>
<path d="M75.4201 25.3244C70.4557 25.3244 66.7734 21.5435 66.7734 16.6777C66.7734 11.8119 70.4557 8.03101 75.4201 8.03101C78.6749 8.03101 81.4366 9.74061 82.686 12.3379L80.2859 13.7187C79.464 11.9763 77.6229 10.8256 75.4201 10.8256C72.1324 10.8256 69.6337 13.3571 69.6337 16.6777C69.6337 19.9654 72.1324 22.4969 75.4201 22.4969C77.6558 22.4969 79.464 21.3462 80.3846 19.6366L82.8175 21.0503C81.4366 23.6147 78.6421 25.3244 75.4201 25.3244Z" fill="#202527"/>
<path d="M66.7801 8.16248C64.7089 8.16248 62.7034 8.91865 61.6513 11.22V8.45837H58.791V24.8969H61.6513V16.1845C61.6513 12.305 64.3144 11.0557 66.7801 11.1543V8.16248Z" fill="#202527"/>
<path d="M54.0003 5.46674C52.9154 5.46674 52.0605 4.61193 52.0605 3.55987C52.0605 2.5078 52.9154 1.62012 54.0003 1.62012C55.0524 1.62012 55.9072 2.5078 55.9072 3.55987C55.9072 4.61193 55.0524 5.46674 54.0003 5.46674Z" fill="#202527"/>
<path d="M52.5532 24.8969V8.45837H55.4135V24.8969H52.5532Z" fill="#202527"/>
<path d="M34.6714 16.6777C34.6714 21.5435 38.3536 25.3244 43.3181 25.3244C46.54 25.3244 49.3346 23.6147 50.7154 21.0503L48.2825 19.6366C47.3619 21.3462 45.5537 22.4969 43.3181 22.4969C40.0304 22.4969 37.5317 19.9654 37.5317 16.6777C37.5317 13.3571 40.0304 10.8256 43.3181 10.8256C45.5208 10.8256 47.3619 11.9763 48.1839 13.7187L50.5839 12.3379C49.3346 9.74061 46.5729 8.03101 43.3181 8.03101C38.3536 8.03101 34.6714 11.8119 34.6714 16.6777Z" fill="#202527"/>
</g>
</g>
<defs>
<clipPath id="clip0_1_314">
<rect width="107" height="29.8883" fill="white"/>
</clipPath>
</defs>
</svg>
