<svg width="45" height="30" viewBox="0 0 45 30" fill="none" xmlns="http://www.w3.org/2000/svg">
<g clip-path="url(#clip0_1_266)">
<path d="M42.1875 0.937497C42.1875 1.45527 42.6072 1.875 43.125 1.875H44.0625C44.5803 1.875 45 1.45527 45 0.937497C45 0.419733 44.5803 0 44.0625 0H43.125C42.6072 0 42.1875 0.419733 42.1875 0.937497Z" fill="#202527"/>
<path d="M15 30H19.5542L18.2284 28.6742C17.8768 28.3225 17.3999 28.125 16.9026 28.125H15C7.75125 28.125 1.875 22.2488 1.875 15C1.875 7.75125 7.75125 1.87501 15 1.875H30C37.2487 1.875 43.125 7.75125 43.125 15C43.125 22.2488 37.2487 28.125 30 28.125H24.3888C23.6428 28.125 22.9275 27.8287 22.4 27.3013L20.8468 25.748C19.9677 24.8689 18.7754 24.375 17.5322 24.375H15C9.8223 24.375 5.625 20.1777 5.625 15C5.625 9.8223 9.8223 5.625 15 5.625H30C35.1777 5.625 39.375 9.8223 39.375 15C39.375 20.1777 35.1777 24.375 30 24.375H26.3971C25.6511 24.375 24.9358 24.0787 24.4083 23.5513L22.855 21.998C21.9759 21.1189 20.7836 20.625 19.5404 20.625H15C11.8934 20.625 9.375 18.1066 9.375 15C9.375 11.8934 11.8934 9.375 15 9.375H30C33.1066 9.375 35.625 11.8934 35.625 15C35.625 18.0687 33.1676 20.5635 30.1134 20.6239L30.1128 20.625H28.7408C27.9949 20.625 27.2795 20.3287 26.752 19.8013L25.1987 18.248C24.4775 17.5266 23.5453 17.0647 22.5471 16.9221L22.5 16.875H15C13.9645 16.875 13.125 16.0355 13.125 15C13.125 13.9645 13.9645 13.125 15 13.125H30C31.0355 13.125 31.875 13.9645 31.875 15C31.875 16.0355 31.0355 16.875 30 16.875H26.25L27.5758 18.2008C27.9275 18.5525 28.4044 18.75 28.9016 18.75H30C32.071 18.75 33.75 17.0711 33.75 15C33.75 12.929 32.071 11.25 30 11.25H15C12.929 11.25 11.25 12.929 11.25 15C11.25 17.0711 12.929 18.75 15 18.75H21.8842C22.6301 18.75 23.3455 19.0463 23.873 19.5737L25.4263 21.127C26.3053 22.0061 27.4976 22.5 28.7408 22.5H30.4688V22.4856C34.3925 22.2437 37.5 18.9847 37.5 15C37.5 10.8579 34.1421 7.5 30 7.5H15C10.8579 7.5 7.5 10.8579 7.5 15C7.5 19.1422 10.8579 22.5 15 22.5H19.5404C20.2864 22.5 21.0017 22.7963 21.5292 23.3237L23.0825 24.877C23.9616 25.7561 25.1539 26.25 26.3971 26.25H30C36.2132 26.25 41.25 21.2132 41.25 15C41.25 8.78678 36.2132 3.75 30 3.75H15C8.78678 3.75 3.75 8.78678 3.75 15C3.75 21.2132 8.78678 26.25 15 26.25H17.5322C18.2781 26.25 18.9935 26.5463 19.5209 27.0737L21.0743 28.627C21.9533 29.5061 23.1456 30 24.3888 30H30C38.2843 30 45 23.2843 45 15C45 6.71572 38.2843 -7.24234e-07 30 0L15 3.09948e-06C6.71572 3.82372e-06 -7.24234e-07 6.71573 0 15C7.24234e-07 23.2843 6.71573 30 15 30Z" fill="#202527"/>
</g>
<defs>
<clipPath id="clip0_1_266">
<rect width="45" height="30" fill="white"/>
</clipPath>
</defs>
</svg>
