<svg width="127" height="30" viewBox="0 0 127 30" fill="none" xmlns="http://www.w3.org/2000/svg">
<g clip-path="url(#clip0_1_280)">
<mask id="mask0_1_280" style="mask-type:luminance" maskUnits="userSpaceOnUse" x="0" y="0" width="127" height="30">
<path d="M127 0H0V29.9528H127V0Z" fill="white"/>
</mask>
<g mask="url(#mask0_1_280)">
<path d="M15.0573 0C6.11487 0 0 5.69104 0 15.0573C0 23.9997 6.11487 29.9528 15.0573 29.9528C23.9997 29.9528 29.9528 23.9997 29.9528 15.0573C29.9528 5.69104 23.9997 0 15.0573 0ZM23.9518 23.9518C23.3689 24.5323 22.7188 25.041 22.0153 25.4674V13.1792L19.3196 11.6816V26.658C18.344 26.9487 17.3397 27.132 16.3243 27.2047V7.51067L13.6285 6.01303V27.1957C12.6645 27.1161 11.711 26.9384 10.783 26.6655V12.5802L8.08726 14.0778V25.4884C4.68612 23.4621 2.69575 19.7973 2.69575 15.0513C2.69575 11.2428 3.85942 8.09026 6.06245 5.93366C8.22804 3.81749 11.3386 2.69575 15.0573 2.69575C18.7759 2.69575 21.8341 3.813 23.9623 5.92467C26.1204 8.07229 27.2571 11.2308 27.2571 15.0603C27.2571 18.7205 26.1144 21.7907 23.9518 23.9518Z" fill="#202527"/>
<path d="M93.7452 8.38684H96.7375L96.7105 21.8656H93.7183L93.7452 8.38684Z" fill="#202527"/>
<path d="M95.2277 5.82575C94.7424 5.82575 94.3201 5.65502 93.9607 5.31356C93.6192 4.95412 93.4485 4.53179 93.4485 4.04655C93.4485 3.56132 93.6192 3.14797 93.9607 2.80651C94.3201 2.46504 94.7424 2.29431 95.2277 2.29431C95.7129 2.29431 96.1263 2.46504 96.4677 2.80651C96.8272 3.14797 97.0069 3.56132 97.0069 4.04655C97.0069 4.53179 96.8272 4.95412 96.4677 5.31356C96.1263 5.65502 95.7129 5.82575 95.2277 5.82575Z" fill="#202527"/>
<path d="M99.7288 21.8656H102.748V14.8297C102.748 13.5537 103.027 12.5743 103.584 11.8913C104.141 11.2084 104.923 10.8759 105.929 10.8939C106.522 10.8939 107.034 11.0107 107.466 11.2443C107.915 11.478 108.256 11.8913 108.49 12.4844C108.742 13.0595 108.867 13.8862 108.867 14.9645V21.8656H111.887V14.1558C111.887 12.089 111.437 10.5614 110.539 9.57298C109.658 8.56656 108.4 8.06335 106.765 8.06335C105.704 8.06335 104.788 8.33293 104.015 8.87208C103.496 9.22186 103.059 9.68497 102.702 10.2614L102.559 8.38685H99.7288V21.8656Z" fill="#202527"/>
<path fill-rule="evenodd" clip-rule="evenodd" d="M116.914 21.2994C117.938 21.8924 119.107 22.189 120.418 22.189C121.443 22.189 122.35 22.0452 123.141 21.7577C123.95 21.4701 124.642 21.0568 125.217 20.5176C125.81 19.9785 126.295 19.3494 126.673 18.6306L123.896 17.4444C123.608 18.0195 123.204 18.4958 122.683 18.8732C122.162 19.2326 121.497 19.4123 120.688 19.4123C119.951 19.4123 119.277 19.2506 118.666 18.9271C118.073 18.5856 117.597 18.1004 117.237 17.4714C116.983 17.0022 116.823 16.463 116.758 15.8539H126.942C126.942 14.2365 126.655 12.8437 126.08 11.6755C125.504 10.5074 124.732 9.61778 123.761 9.00675C122.809 8.37774 121.73 8.06323 120.526 8.06323C119.196 8.06323 118.01 8.36875 116.968 8.97979C115.943 9.57285 115.135 10.3996 114.542 11.4599C113.949 12.5202 113.652 13.7423 113.652 15.1261C113.652 16.5099 113.94 17.732 114.515 18.7923C115.108 19.8527 115.908 20.6883 116.914 21.2994ZM123.622 13.4547C123.575 13.2845 123.523 13.1227 123.465 12.9695C123.195 12.2147 122.8 11.6576 122.279 11.2981C121.775 10.9207 121.155 10.732 120.418 10.732C119.646 10.732 118.981 10.9028 118.424 11.2442C117.866 11.5857 117.444 12.0889 117.157 12.7538C117.061 12.9687 116.982 13.2023 116.918 13.4547H123.622Z" fill="#202527"/>
<path d="M87.6978 2.99524V21.8655H90.717V2.99524H87.6978Z" fill="#202527"/>
<path fill-rule="evenodd" clip-rule="evenodd" d="M82.0409 21.8655L81.9328 19.8533C81.56 20.4453 81.1019 20.9364 80.5583 21.3264C79.7495 21.9015 78.7791 22.189 77.6469 22.189C76.4248 22.189 75.3555 21.9015 74.4389 21.3264C73.5403 20.7333 72.8304 19.9066 72.3093 18.8463C71.806 17.7859 71.5544 16.5459 71.5544 15.1261C71.5544 13.6884 71.806 12.4484 72.3093 11.406C72.8304 10.3457 73.5403 9.52795 74.4389 8.95286C75.3555 8.35979 76.4248 8.06326 77.6469 8.06326C78.7791 8.06326 79.7495 8.35979 80.5583 8.95286C81.089 9.3221 81.5383 9.79136 81.9061 10.3606V2.99524H84.8984V21.8655H82.0409ZM81.4479 17.3636C81.7534 16.7166 81.9061 15.9708 81.9061 15.1261C81.9061 14.2815 81.7534 13.5356 81.4479 12.8887C81.1603 12.2417 80.747 11.7385 80.2078 11.379C79.6866 11.0196 79.0756 10.8399 78.3747 10.8399C77.6558 10.8399 77.0178 11.0196 76.4607 11.379C75.9036 11.7385 75.4633 12.2417 75.1398 12.8887C74.8343 13.5356 74.6725 14.2815 74.6546 15.1261C74.6725 15.9708 74.8343 16.7166 75.1398 17.3636C75.4633 18.0106 75.9036 18.5228 76.4607 18.9002C77.0358 19.2596 77.6828 19.4393 78.4017 19.4393C79.0846 19.4393 79.6866 19.2596 80.2078 18.9002C80.747 18.5228 81.1603 18.0106 81.4479 17.3636Z" fill="#202527"/>
<path d="M66.4775 2.99524V21.8655H69.4968V2.99524H66.4775Z" fill="#202527"/>
<path fill-rule="evenodd" clip-rule="evenodd" d="M57.5532 22.1891C56.2053 22.1891 55.0012 21.8926 53.9409 21.2995C52.8985 20.6885 52.0808 19.8528 51.4877 18.7924C50.8947 17.7321 50.5981 16.51 50.5981 15.1262C50.5981 13.7424 50.8857 12.5203 51.4608 11.46C52.0539 10.3997 52.8716 9.57298 53.9139 8.97991C54.9563 8.36887 56.1514 8.06335 57.4993 8.06335C58.8472 8.06335 60.0423 8.36887 61.0846 8.97991C62.1271 9.57298 62.9357 10.3997 63.5108 11.46C64.1039 12.5203 64.4004 13.7424 64.4004 15.1262C64.4004 16.51 64.1129 17.7321 63.5378 18.7924C62.9627 19.8528 62.1539 20.6885 61.1116 21.2995C60.0692 21.8926 58.8831 22.1891 57.5532 22.1891ZM57.5532 19.4125C58.29 19.4125 58.946 19.2327 59.5211 18.8733C60.0962 18.4959 60.5455 17.9927 60.869 17.3637C61.1925 16.7167 61.3542 15.9709 61.3542 15.1262C61.3542 14.2816 61.1836 13.5447 60.8422 12.9157C60.5185 12.2687 60.0692 11.7655 59.4941 11.4061C58.919 11.0287 58.2541 10.84 57.4993 10.84C56.7445 10.84 56.0795 11.0197 55.5044 11.3791C54.9293 11.7386 54.48 12.2418 54.1565 12.8888C53.8331 13.5357 53.6713 14.2816 53.6713 15.1262C53.6713 15.9709 53.8331 16.7167 54.1565 17.3637C54.498 17.9927 54.9563 18.4959 55.5314 18.8733C56.1244 19.2327 56.7984 19.4125 57.5532 19.4125Z" fill="#202527"/>
<path fill-rule="evenodd" clip-rule="evenodd" d="M39.0414 27.3649C39.8142 27.5267 40.6768 27.6076 41.6293 27.6076C43.0131 27.6076 44.2262 27.329 45.2686 26.7719C46.3109 26.2327 47.1196 25.424 47.6947 24.3457C48.2698 23.2854 48.5574 21.9914 48.5574 20.4638V8.38685H45.5381V10.5603C45.1356 9.89088 44.6324 9.3461 44.0285 8.926C43.2198 8.3509 42.2673 8.06335 41.171 8.06335C39.9489 8.06335 38.8796 8.3509 37.9631 8.926C37.0645 9.50109 36.3546 10.3008 35.8334 11.3252C35.3302 12.3496 35.0786 13.5627 35.0786 14.9645C35.0786 16.2764 35.3302 17.4356 35.8334 18.442C36.3546 19.4304 37.0645 20.2032 37.9631 20.7603C38.8796 21.3175 39.9489 21.596 41.171 21.596C42.2673 21.596 43.2198 21.3265 44.0285 20.7873C44.6324 20.3804 45.1356 19.8583 45.5381 19.2211V20.5447C45.5381 21.5511 45.3674 22.3778 45.026 23.0248C44.6845 23.6718 44.2082 24.148 43.5972 24.4535C42.9862 24.777 42.2942 24.9388 41.5215 24.9388C40.8026 24.9388 40.1556 24.8669 39.5805 24.7231C39.0054 24.5793 38.5022 24.4086 38.0709 24.2109C37.6576 24.0312 37.3251 23.8784 37.0735 23.7526L35.9143 26.1788C36.2018 26.3765 36.6062 26.5832 37.1274 26.7988C37.6486 27.0145 38.2866 27.2032 39.0414 27.3649ZM43.7859 18.4959C43.2827 18.8553 42.6896 19.0351 42.0067 19.0351C41.2878 19.0351 40.6498 18.8553 40.0927 18.4959C39.5356 18.1365 39.0953 17.6512 38.7718 17.0402C38.4663 16.4112 38.3135 15.6923 38.3135 14.8836C38.3135 14.0569 38.4663 13.338 38.7718 12.727C39.0953 12.098 39.5266 11.6128 40.0658 11.2713C40.6229 10.9119 41.2609 10.7322 41.9797 10.7322C42.6627 10.7322 43.2647 10.9119 43.7859 11.2713C44.3071 11.6128 44.7114 12.098 44.999 12.727C45.2865 13.338 45.4303 14.0569 45.4303 14.8836C45.4303 15.6923 45.2865 16.4112 44.999 17.0402C44.7114 17.6512 44.3071 18.1365 43.7859 18.4959Z" fill="#202527"/>
</g>
</g>
<defs>
<clipPath id="clip0_1_280">
<rect width="127" height="29.9528" fill="white"/>
</clipPath>
</defs>
</svg>
