<svg width="120" height="30" viewBox="0 0 120 30" fill="none" xmlns="http://www.w3.org/2000/svg">
<g clip-path="url(#clip0_1_306)">
<path d="M116.206 2.76038L119.851 27.202H113.332L113.015 22.8089H110.731L110.353 27.202H103.759L106.995 2.76038H116.206ZM112.833 18.476C112.511 15.7084 112.188 12.2914 111.865 8.2254C111.22 12.8953 110.817 16.3123 110.655 18.476H112.833Z" fill="#202527"/>
<path d="M102.964 2.76038V27.202H96.5972V2.76038H102.964Z" fill="#202527"/>
<path d="M94.3658 10.1579H88.4522V8.34626C88.4522 7.50085 88.3766 6.9624 88.2254 6.73092C88.0741 6.49943 87.8219 6.38369 87.4691 6.38369C87.0859 6.38369 86.7936 6.53969 86.592 6.85169C86.4004 7.16369 86.3045 7.63672 86.3045 8.27079C86.3045 9.08601 86.4155 9.69994 86.6372 10.1126C86.8491 10.5252 87.4489 11.0234 88.4371 11.6072C91.2703 13.2879 93.0549 14.6668 93.7909 15.7437C94.527 16.8205 94.8951 18.5567 94.8951 20.9521C94.8951 22.6932 94.6883 23.9763 94.275 24.8016C93.8717 25.627 93.0852 26.3215 91.9156 26.8851C90.746 27.4387 89.3848 27.7154 87.8321 27.7154C86.1282 27.7154 84.6711 27.3933 83.4612 26.7492C82.2614 26.105 81.475 25.2848 81.1018 24.2884C80.7288 23.292 80.5423 21.8779 80.5423 20.0463V18.446H86.4558V21.4201C86.4558 22.3359 86.5364 22.9246 86.6978 23.1864C86.8691 23.4481 87.1667 23.5789 87.5902 23.5789C88.0136 23.5789 88.3262 23.4127 88.5279 23.0806C88.7396 22.7485 88.8455 22.2554 88.8455 21.6012C88.8455 20.1619 88.6488 19.221 88.2555 18.7781C87.8522 18.3353 86.8591 17.5955 85.2762 16.559C83.6931 15.5122 82.6446 14.7523 82.1303 14.2793C81.6161 13.8062 81.1876 13.1521 80.8447 12.3167C80.512 11.4813 80.3457 10.4145 80.3457 9.1162C80.3457 7.24421 80.5826 5.87543 81.0566 5.00989C81.5405 4.14435 82.3168 3.47002 83.3855 2.98694C84.4543 2.49377 85.7449 2.24719 87.2573 2.24719C88.9109 2.24719 90.3175 2.5139 91.4771 3.04731C92.6467 3.58074 93.4179 4.25506 93.7909 5.07028C94.1742 5.87543 94.3658 7.24924 94.3658 9.19169V10.1579Z" fill="#202527"/>
<path d="M78.7948 17.0722C78.7948 19.5279 78.7344 21.2691 78.6133 22.2956C78.5025 23.3122 78.1395 24.2431 77.5243 25.0885C76.9194 25.9339 76.0977 26.5831 75.0592 27.036C74.0207 27.4888 72.8106 27.7154 71.4294 27.7154C70.1186 27.7154 68.9389 27.504 67.8903 27.0814C66.8518 26.6485 66.015 26.0043 65.3798 25.1489C64.7446 24.2935 64.3664 23.3624 64.2454 22.356C64.1243 21.3495 64.064 19.5883 64.064 17.0722V12.8904C64.064 10.4347 64.1194 8.69852 64.2303 7.68201C64.3513 6.65543 64.7143 5.71943 65.3192 4.87402C65.9342 4.0286 66.761 3.37945 67.7995 2.92655C68.838 2.47365 70.0481 2.24719 71.4294 2.24719C72.7401 2.24719 73.9148 2.46358 74.9533 2.89635C76.0019 3.31906 76.8437 3.95816 77.4789 4.81363C78.1142 5.66911 78.4923 6.60008 78.6133 7.60653C78.7344 8.61298 78.7948 10.3743 78.7948 12.8904V17.0722ZM72.4276 9.04072C72.4276 7.90343 72.3619 7.17879 72.231 6.86679C72.11 6.54472 71.8529 6.38369 71.4596 6.38369C71.1269 6.38369 70.8698 6.51453 70.6882 6.77621C70.5169 7.02782 70.4312 7.78265 70.4312 9.04072V20.4538C70.4312 21.873 70.4866 22.7485 70.5976 23.0806C70.7185 23.4127 70.9907 23.5789 71.4142 23.5789C71.8478 23.5789 72.1251 23.3876 72.246 23.0052C72.367 22.6228 72.4276 21.7119 72.4276 20.2727V9.04072Z" fill="#202527"/>
<path d="M63.1036 2.76038V7.65172H59.3226V27.202H52.9554V7.65172H49.1895V2.76038H63.1036Z" fill="#202527"/>
<path d="M48.1231 2.76038V19.095C48.1231 20.9469 48.0626 22.2502 47.9417 23.0051C47.8206 23.7499 47.4627 24.5197 46.8678 25.3148C46.2729 26.1 45.4865 26.6988 44.5084 27.1114C43.5405 27.5139 42.396 27.7153 41.0753 27.7153C39.6133 27.7153 38.3226 27.4738 37.2035 26.9906C36.0843 26.5075 35.2474 25.8785 34.693 25.1036C34.1384 24.3286 33.8107 23.5133 33.7099 22.6579C33.6091 21.7923 33.5586 19.9807 33.5586 17.223V2.76038H39.9258V21.0878C39.9258 22.1547 39.9814 22.839 40.0922 23.1409C40.2133 23.4329 40.4501 23.5788 40.8031 23.5788C41.2064 23.5788 41.4635 23.4177 41.5743 23.0956C41.6954 22.7635 41.7559 21.9885 41.7559 20.7708V2.76038H48.1231Z" fill="#202527"/>
<path fill-rule="evenodd" clip-rule="evenodd" d="M14.9818 22.4719C19.1187 22.4719 22.4724 19.1182 22.4724 14.9813C22.4724 10.8443 19.1187 7.49064 14.9818 7.49064C10.8448 7.49064 7.49112 10.8443 7.49112 14.9813C7.49112 19.1182 10.8448 22.4719 14.9818 22.4719ZM14.9818 29.9625C23.2556 29.9625 29.963 23.2551 29.963 14.9813C29.963 6.70734 23.2556 0 14.9818 0C6.70783 0 0.000488281 6.70734 0.000488281 14.9813C0.000488281 23.2551 6.70783 29.9625 14.9818 29.9625Z" fill="#202527"/>
</g>
<defs>
<clipPath id="clip0_1_306">
<rect width="120" height="29.9625" fill="white"/>
</clipPath>
</defs>
</svg>
